<svg xmlns="http://www.w3.org/2000/svg" viewBox="0 0 48 48"><defs><style>.cls-1{fill:#201602;}</style></defs><title>Asset 20ldpi</title><g id="Layer_2" data-name="Layer 2"><g id="layer_1-2" data-name="layer 1"><rect class="cls-1" x="23" y="18" width="2" height="3"/><rect class="cls-1" x="8" y="23" width="2" height="3"/><rect class="cls-1" x="13" y="23" width="2" height="3"/><rect class="cls-1" x="18" y="23" width="2" height="3"/><rect class="cls-1" x="23" y="23" width="2" height="3"/><rect class="cls-1" x="8" y="28" width="2" height="3"/><rect class="cls-1" x="13" y="28" width="2" height="3"/><rect class="cls-1" x="18" y="28" width="2" height="3"/><rect class="cls-1" x="23" y="28" width="2" height="3"/><rect class="cls-1" x="28" y="23" width="2" height="3"/><rect class="cls-1" x="33" y="23" width="2" height="3"/><rect class="cls-1" x="38" y="23" width="2" height="3"/><rect class="cls-1" x="28" y="28" width="2" height="3"/><rect class="cls-1" x="33" y="28" width="2" height="3"/><rect class="cls-1" x="38" y="28" width="2" height="3"/><rect class="cls-1" x="8" y="33" width="2" height="3"/><rect class="cls-1" x="13" y="33" width="2" height="3"/><rect class="cls-1" x="18" y="33" width="2" height="3"/><rect class="cls-1" x="23" y="33" width="2" height="3"/><rect class="cls-1" x="28" y="33" width="2" height="3"/><rect class="cls-1" x="33" y="33" width="2" height="3"/><rect class="cls-1" x="38" y="33" width="2" height="3"/><rect class="cls-1" x="8" y="38" width="2" height="3"/><rect class="cls-1" x="13" y="38" width="2" height="3"/><rect class="cls-1" x="18" y="38" width="2" height="3"/><rect class="cls-1" x="28" y="18" width="2" height="3"/><rect class="cls-1" x="33" y="18" width="2" height="3"/><rect class="cls-1" x="38" y="18" width="2" height="3"/><path class="cls-1" d="M39,48H1a1,1,0,0,1-1-1V12a1,1,0,0,1,1-1H47a1,1,0,0,1,1,1V39a1,1,0,0,1-.29.71l-8,8A1,1,0,0,1,39,48ZM2,46H38.59L46,38.59V13H2Z"/><path class="cls-1" d="M47,13H1a1,1,0,0,1-1-1V4A1,1,0,0,1,1,3H47a1,1,0,0,1,1,1v8A1,1,0,0,1,47,13ZM2,11H46V5H2Z"/><rect class="cls-1" x="7" width="2" height="8"/><rect class="cls-1" x="15" width="2" height="8"/><rect class="cls-1" x="23" width="2" height="8"/><rect class="cls-1" x="31" width="2" height="8"/><rect class="cls-1" x="39" width="2" height="8"/><path class="cls-1" d="M39,48a.84.84,0,0,1-.38-.08A1,1,0,0,1,38,47V39a1,1,0,0,1,1-1h8a1,1,0,0,1,.92.62,1,1,0,0,1-.21,1.09l-8,8A1,1,0,0,1,39,48Zm1-8v4.59L44.59,40Z"/></g></g></svg>