<svg id="Layer_1" data-name="Layer 1" xmlns="http://www.w3.org/2000/svg" viewBox="0 0 128 128"><title>TAG</title><path d="M97.927,40a9.977,9.977,0,1,0-9.977-9.977A9.988,9.988,0,0,0,97.927,40Zm0-16.454a6.477,6.477,0,1,1-6.477,6.477A6.485,6.485,0,0,1,97.927,23.541Z"/><path d="M121.445,4.75H70.665a1.75,1.75,0,0,0-1.237.513L5.318,69.373a1.749,1.749,0,0,0,0,2.475l50.78,50.78a1.749,1.749,0,0,0,2.475,0l64.11-64.11a1.75,1.75,0,0,0,.513-1.237V6.5A1.75,1.75,0,0,0,121.445,4.75Zm-1.75,51.8-62.36,62.36L9.03,70.61,71.39,8.25H119.7Z"/><path d="M63.883,106.357a1.749,1.749,0,0,0,2.475,0l18.75-18.75a1.75,1.75,0,0,0-2.475-2.475l-18.75,18.75A1.749,1.749,0,0,0,63.883,106.357Z"/></svg>