<svg viewBox="0 0 1086 191" version="1.1" xmlns:xlink="http://www.w3.org/1999/xlink" xmlns="http://www.w3.org/2000/svg">
  <desc>Logo Demasie</desc>
  <defs>
    <path d="M0 0L981.958 0L981.958 190.659L0 190.659L0 0Z" transform="translate(0.002357743 0.3395556)" id="path_1">
    </path>
    <clipPath id="mask_1">
      <use xlink:href="#path_1"></use>
    </clipPath>
  </defs>
  <g id="Logo_brown_white">
    <g id="Group-3">
      <path d="M0 0L981.958 0L981.958 190.659L0 190.659L0 0Z" transform="translate(0.002357743 0.3395556)" id="Clip-2"
        fill="none" stroke="none"></path>
      <g clip-path="url(#mask_1)">
        <path
          d="M91.0985 52.7019L91.0985 68.8307C82.8794 58.2574 70.157 52.7019 55.5767 52.7019C23.0257 52.7019 0 80.4841 0 126.848C0 167.123 20.9038 190.66 51.3422 190.66C68.035 190.66 80.7621 184.049 89.7687 170.565L90.3016 185.1L156.738 185.1L156.738 177.715L155.946 177.715C144.294 177.715 140.055 172.155 140.055 158.907L140.055 0C111.738 11.361 88.4484 20.6374 69.6477 26.2024L83.681 37.5963C90.0375 42.6425 91.0985 44.76 91.0985 52.7019ZM349.932 97.7024L349.932 185.1L283.495 185.1L283.495 177.715L284.287 177.715C295.939 177.715 300.178 172.155 300.178 158.907L300.178 110.157C300.178 103.003 299.382 99.5605 292.766 95.0567L276.61 83.6674C298.853 75.7162 321.615 64.8693 345.433 51.3814L345.433 73.3298C356.029 59.0497 369.548 52.7019 388.094 52.7019C406.088 52.7019 419.056 59.8467 425.143 73.0658C434.678 59.5779 448.73 52.7019 465.951 52.7019C494.268 52.7019 508.032 66.9868 508.032 96.3819L508.032 158.907C508.032 172.155 512.267 177.715 523.919 177.715L524.716 177.715L524.716 185.1L458.275 185.1L458.275 97.7024C458.275 80.7529 455.096 72.8017 443.166 72.8017C432.297 72.8017 428.85 81.0123 428.85 97.7024L428.85 158.907C428.85 172.155 433.089 177.715 444.755 177.715L445.552 177.715L445.552 185.1L362.39 185.1L362.39 177.715L363.187 177.715C374.853 177.715 379.092 172.155 379.092 158.907L379.092 97.7024C379.092 80.7529 375.914 72.8017 363.984 72.8017C353.114 72.8017 349.932 81.0123 349.932 97.7024ZM799.728 158.907L799.728 104.064C799.728 96.1178 798.667 94.0003 792.315 88.9683L778.277 77.5743C798.407 71.2171 822.22 62.4735 849.481 51.3814L849.481 158.907C849.481 171.886 853.72 177.455 864.844 177.715L864.844 185.1L783.044 185.1L783.044 177.715L783.836 177.715C795.488 177.715 799.728 172.155 799.728 158.907ZM274.206 163.68L274.206 151.489C267.326 159.176 259.121 162.619 249.067 162.619C223.377 162.619 200.847 140.892 199.786 109.082L274.729 109.082C274.729 74.1363 252.51 52.4425 219.402 52.4425C199.786 52.4425 179.41 62.7376 168.56 77.5837C158.238 91.3687 153.48 106.446 153.48 123.66C153.48 140.623 158.502 155.46 168.824 167.641C181.263 182.459 198.994 190.66 218.605 190.66C240.07 190.66 259.385 181.398 274.206 163.68ZM602.568 168.438C607.336 182.195 617.653 189.34 633.002 189.34C646.239 189.34 657.622 184.317 664.506 175.583L664.506 167.118C662.917 168.438 661.328 169.235 659.739 169.235C652.057 169.235 649.676 159.968 649.676 140.887L649.676 104.069C649.676 88.1854 648.62 76.7867 638.298 66.982C628.504 57.9885 612.362 52.4425 591.963 52.4425C555.149 52.4425 532.388 70.9577 532.388 93.2222C532.388 104.069 539.268 111.209 549.854 111.209C560.973 111.209 568.909 103.277 568.909 90.3076C568.909 87.3931 568.381 82.8846 568.381 77.3149C568.381 69.3637 574.997 63.0017 584.272 63.0017C595.943 63.0017 600.187 71.4859 600.187 90.0388L600.187 99.32C548.529 119.156 523.386 132.408 523.386 158.643C523.386 177.173 537.683 190.66 559.12 190.66C575.261 190.66 589.577 183.256 602.568 168.438ZM981.429 151.489L981.429 163.68C966.613 181.398 947.299 190.66 925.834 190.66C906.217 190.66 888.492 182.459 876.052 167.641C865.73 155.46 860.704 140.623 860.704 123.66C860.704 106.446 865.466 91.3687 875.788 77.5837C886.639 62.7376 907.014 52.4425 926.631 52.4425C959.734 52.4425 981.958 74.1363 981.958 109.082L907.014 109.082C908.075 140.892 930.606 162.619 956.296 162.619C966.349 162.619 974.55 159.176 981.429 151.489ZM667.699 179.832C685.693 186.968 703.154 190.66 720.38 190.66C755.341 190.66 778.89 171.094 778.89 143.274C778.89 119.693 764.866 112.016 737.615 100.886C717.202 92.6751 705.536 88.6995 705.536 77.0461C705.536 68.3025 712.963 61.9406 724.624 61.9406C740.789 61.9406 751.375 72.5376 762.485 94.7926L768.841 94.7926L768.841 59.5637C753.492 54.8194 739.468 52.7019 726.482 52.7019C690.192 52.7019 668.496 70.953 668.496 98.24C668.496 120.49 682.251 128.97 708.983 139.831C727.802 147.513 738.676 151.489 738.676 166.062C738.676 175.597 732.046 181.422 720.38 181.422C699.189 181.422 682.251 166.062 674.319 137.445L667.699 137.445L667.699 179.832ZM220.463 62.2047C205.619 62.2047 199.522 74.4004 199.522 99.8482L211.452 99.8482C230.007 99.8482 237.161 99.5841 237.161 85.2709C237.161 69.8919 231.592 62.2047 220.463 62.2047ZM906.75 99.8482C906.75 74.4004 912.847 62.2047 927.692 62.2047C938.82 62.2047 944.389 69.8919 944.389 85.2709C944.389 99.5841 937.231 99.8482 918.676 99.8482L906.75 99.8482ZM54.5157 120.49C54.5157 153.875 56.3736 169.504 72.543 169.504C88.9765 169.504 90.8297 154.139 90.8297 120.49C90.8297 86.8461 89.2453 71.4812 72.543 71.4812C56.1096 71.4812 54.5157 86.8461 54.5157 120.49ZM600.187 133.464L600.187 108.823C584.805 114.921 576.317 128.432 576.317 148.042C576.317 159.435 581.358 166.066 588.257 166.066C599.923 166.066 600.187 155.46 600.187 133.464Z"
          transform="translate(0.002357743 0.3376691)" id="Fill-1" fill="#451E0F" fill-rule="evenodd" stroke="none">
        </path>
      </g>
    </g>
    <path
      d="M0 22.5023C0 35.1239 9.87245 45 22.5047 45C34.9026 45 45 35.1239 45 22.5023C45 9.87611 35.1322 0 22.5047 0C9.87245 0 0 9.87611 0 22.5023"
      transform="translate(936 113)" id="Fill-4" class="filler" fill="white" stroke="none"></path>
    <path
      d="M0 22.5C0 35.1249 9.87245 45 22.5047 45C34.9026 45 45 35.1249 45 22.5C45 9.87508 35.1322 0 22.5047 0C9.87245 0 0 9.87508 0 22.5"
      transform="translate(989 143)" id="Fill-6" class="filler" fill="white" stroke="none"></path>
    <path
      d="M0 22.5C0 35.1249 9.87245 45 22.5047 45C34.9026 45 45 35.1249 45 22.5C45 9.87508 35.1322 0 22.5047 0C9.87245 0 0 9.87508 0 22.5"
      transform="translate(1041 143)" id="Fill-8" class="filler" fill="white" stroke="none"></path>
  </g>
</svg>