<?xml version="1.0" encoding="UTF-8"?>
<svg viewBox="0 0 256 256" version="1.1" xmlns="http://www.w3.org/2000/svg" xmlns:xlink="http://www.w3.org/1999/xlink"
    preserveAspectRatio="xMidYMid">
    <g stroke="none" stroke-width="1" fill="none" fill-rule="evenodd">
        <g>
            <path
                d="M156.376743,4.833565 C157.952341,6.78963202 158.755785,9.42903125 160.362671,14.7078297 L195.467767,130.028388 C182.488816,123.295091 168.3783,118.438927 153.497899,115.818981 L130.640938,38.5784973 C130.266938,37.3146465 129.106193,36.4476538 127.788195,36.4476538 C126.466794,36.4476538 125.303778,37.3191857 124.932859,38.5874137 L102.352791,115.779912 C87.4031662,118.388185 73.228939,123.253103 60.1940581,130.010717 L95.4713205,14.6810807 C97.083233,9.41136068 97.8892702,6.77650068 99.4648689,4.82404883 C100.85598,3.10040652 102.665349,1.76177183 104.720485,0.9356971 C107.048461,0 109.803772,0 115.314558,0 L140.511329,0 C146.029247,0 148.788287,0 151.118371,0.937658695 C153.17529,1.77054227 154.985793,3.10677765 156.376743,4.833565 Z"
                fill="#000000"></path>
            <path
                d="M160.577474,135.516477 C154.790282,140.464884 143.239405,143.839801 129.934116,143.839801 C113.603917,143.839801 99.9165221,138.755865 96.2844909,131.91849 C94.9861094,135.837141 94.6949503,140.321899 94.6949503,143.1868 C94.6949503,143.1868 93.8394679,157.255328 103.623937,167.038987 C103.623937,161.958293 107.742638,157.840565 112.82317,157.840565 C121.531355,157.840565 121.521466,165.437288 121.513523,171.600911 C121.513361,171.785723 121.513036,171.968913 121.513036,172.150482 C121.513036,181.506156 127.231005,189.526 135.362871,192.907726 C134.148303,190.409529 133.466932,187.603313 133.466932,184.639845 C133.466932,175.717019 138.705364,172.393655 144.793442,168.532069 C149.637609,165.459984 155.019675,162.047457 158.728873,155.199706 C160.664206,151.626685 161.763186,147.535381 161.763186,143.1868 C161.763186,140.512546 161.347684,137.935399 160.577474,135.516477 Z"
                fill="#FF5D01"></path>
        </g>
    </g>
</svg>