<?xml version="1.0" encoding="UTF-8"?>
<svg version="1.1" xmlns="http://www.w3.org/2000/svg" width="1920" height="1080">
  <path
    d="M0 0 C633.6 0 1267.2 0 1920 0 C1920 356.4 1920 712.8 1920 1080 C1286.4 1080 652.8 1080 0 1080 C0 723.6 0 367.2 0 0 Z "
    fill="#9EE76F" transform="translate(0,0)" />
  <path
    d="M0 0 C18.81 0 37.62 0 57 0 C58.4375 26.3125 58.4375 26.3125 58.88452148 34.55200195 C59.00488992 36.73910362 59.12540449 38.92619726 59.24609375 41.11328125 C59.30575317 42.22296265 59.3654126 43.33264404 59.42687988 44.47595215 C59.70807296 49.54134074 60.03427529 54.59007169 60.51586914 59.640625 C61.02179073 64.9691145 61.28994842 70.28932468 61.5 75.63671875 C61.58331422 77.61523518 61.66664813 79.59375078 61.75 81.57226562 C61.87595414 84.63969186 62.00079606 87.70716061 62.125 90.7746582 C62.24724865 93.77046638 62.37347909 96.76608842 62.5 99.76171875 C62.53544922 100.67024094 62.57089844 101.57876312 62.60742188 102.51481628 C62.82889734 107.7283839 63.27892298 112.83115466 64 118 C67.25167846 110.42239332 70.50201451 102.84421131 73.75169373 95.26574707 C74.55975888 93.3813921 75.36794433 91.49708876 76.17614746 89.61279297 C82.0605146 75.892685 87.93583519 62.16886372 93.7718792 48.42811966 C94.56760221 46.55464073 95.36360881 44.68128252 96.15968323 42.80795288 C98.67161506 36.89595427 101.18083427 30.98282844 103.68579102 25.06787109 C104.59771889 22.92020488 105.50974177 20.77257901 106.421875 18.625 C106.82818649 17.6627652 107.23449799 16.7005304 107.65312195 15.70913696 C108.0366835 14.80738739 108.42024506 13.90563782 108.81542969 12.9765625 C109.14275085 12.20393066 109.47007202 11.43129883 109.80731201 10.63525391 C111.43396755 7.04114514 113.2357083 3.5285834 115 0 C128.53 0 142.06 0 156 0 C159.52226018 21.63674112 162.91017232 43.28393194 165.4375 65.0625 C166.58338832 74.88509349 167.8625203 84.68641674 169.22952271 94.48043823 C169.45038067 96.06870879 169.66856897 97.65735301 169.88400269 99.24636841 C170.18708409 101.47529856 170.50033579 103.70256696 170.81640625 105.9296875 C171.08626343 107.86690674 171.08626343 107.86690674 171.36157227 109.84326172 C171.82137188 113.14237644 171.82137188 113.14237644 174 116 C174.75396829 113.93894734 175.50289167 111.87604922 176.25 109.8125 C176.87648438 108.08966797 176.87648438 108.08966797 177.515625 106.33203125 C179.09513173 101.82967349 180.47424367 97.26947657 181.86621094 92.70629883 C184.03867879 85.60461182 186.26890667 78.52095299 188.5 71.4375 C188.88467941 70.21617874 188.88467941 70.21617874 189.27713013 68.97018433 C194.50820441 52.38643744 199.96944435 35.88332634 205.52124023 19.40454102 C207.69162295 12.93997529 209.84358698 6.46923906 212 0 C230.48 0 248.96 0 268 0 C259.41997664 25.74007009 259.41997664 25.74007009 254.703125 37.6171875 C252.59454216 42.9751013 250.71486423 48.40774243 248.83129883 53.84790039 C246.30527109 61.14323483 243.7241589 68.41790667 241.125 75.6875 C240.56365356 77.25927002 240.56365356 77.25927002 239.9909668 78.86279297 C237.2592529 86.50247666 234.51125978 94.13624963 231.76171875 101.76953125 C228.62848669 110.46841651 225.50314936 119.17008136 222.38671875 127.875 C222.00435059 128.94295303 221.62198242 130.01090607 221.22802734 131.11122131 C220.44685084 133.29309817 219.66568228 135.47497787 218.88452148 137.65686035 C212.49175153 155.51111189 206.08809491 173.36077426 199.56518555 191.16796875 C199.13117432 192.35519531 198.69716309 193.54242187 198.25 194.765625 C197.70085937 196.26270996 197.70085937 196.26270996 197.140625 197.79003906 C195.70164952 201.83962159 194.35903528 205.92289415 193 210 C177.16 210 161.32 210 145 210 C138.4 167.1 131.8 124.2 125 80 C119.38501431 91.13855134 119.38501431 91.13855134 114.23046875 102.45703125 C113.91216599 103.19094589 113.59386322 103.92486053 113.26591492 104.68101501 C112.23630354 107.05669087 111.21194266 109.43459137 110.1875 111.8125 C109.06962746 114.39502694 107.95028992 116.97691557 106.83081055 119.55874634 C106.05744634 121.34240029 105.28450066 123.12623575 104.51196289 124.9102478 C101.83305779 131.09315909 99.1330273 137.2664782 96.41796875 143.43359375 C96.04167328 144.28834793 95.66537781 145.14310211 95.27767944 146.02375793 C94.52027864 147.7437672 93.76280209 149.4637431 93.00524902 151.1836853 C86.06997035 166.93075273 79.22456098 182.71312256 72.50537109 198.55371094 C72.20702866 199.2546991 71.90868622 199.95568726 71.6013031 200.67791748 C70.80067265 202.55924976 70.00265733 204.44169434 69.20483398 206.32421875 C68 209 68 209 67 210 C65.52645652 210.09304018 64.04849409 210.11746265 62.57202148 210.11352539 C61.63112167 210.11344986 60.69022186 210.11337433 59.72080994 210.11329651 C58.69790359 210.10813522 57.67499725 210.10297394 56.62109375 210.09765625 C55.058395 210.09553383 55.058395 210.09553383 53.46412659 210.09336853 C50.12188906 210.0877508 46.77971743 210.0751953 43.4375 210.0625 C41.17773534 210.05748728 38.91796963 210.05292398 36.65820312 210.04882812 C31.10544609 210.03777561 25.55272775 210.02102024 20 210 C18.51298633 207.02597265 18.72135363 204.18823288 18.5625 200.875 C18.22392792 194.52820813 17.58039292 188.30322149 16.73071289 182.00341797 C16.03386187 176.67409881 15.67745555 171.36508297 15.39453125 166 C15.12824973 161.29875382 14.62878378 156.6657579 14 152 C13.19147682 146.00052365 12.71324366 140.0437316 12.39453125 134 C12.12824973 129.29875382 11.62878378 124.6657579 11 120 C10.19147682 114.00052365 9.71324366 108.0437316 9.39453125 102 C9.12824973 97.29875382 8.62878378 92.6657579 8 88 C7.19147682 82.00052365 6.71324366 76.0437316 6.39453125 70 C6.12825094 65.29877529 5.629053 60.66571405 5 56 C4.08598133 49.14147475 3.58635526 42.33517317 3.24609375 35.42578125 C3.05137192 31.71366625 3.05137192 31.71366625 2 27 C1.34 18.09 0.68 9.18 0 0 Z "
    fill="#163300" transform="translate(728,435)" />
  <path
    d="M0 0 C3.64657371 3.02535344 6.98466894 6.30137351 10.29052734 9.69238281 C10.95568359 10.34851563 11.62083984 11.00464844 12.30615234 11.68066406 C29.80615313 30.08719642 34.19837692 56.01583411 34.54052734 80.37988281 C34.57279419 81.66946899 34.57279419 81.66946899 34.60571289 82.98510742 C34.64985265 92.04708258 32.94111439 99.33905624 31.29052734 108.69238281 C-14.57947266 108.69238281 -60.44947266 108.69238281 -107.70947266 108.69238281 C-104.06775969 130.08010297 -104.06775969 130.08010297 -90.79150391 146.39941406 C-79.4256811 153.4577393 -66.43384724 154.4948938 -53.40087891 152.07910156 C-40.45507997 147.81393994 -30.77879435 138.00329753 -23.70947266 126.69238281 C-18.11503982 127.24646402 -13.79404351 129.35750016 -8.83447266 131.81738281 C-7.14663941 132.63708905 -5.45781889 133.45476524 -3.76806641 134.27050781 C-2.92356934 134.67849609 -2.07907227 135.08648438 -1.20898438 135.50683594 C3.15930709 137.57876633 7.59416043 139.49305853 12.03808594 141.39599609 C15.85797152 143.03802836 19.58880342 144.79900488 23.29052734 146.69238281 C20.64874681 160.47420176 5.46373068 173.88661136 -5.46728516 181.63769531 C-14.45641581 187.33442149 -23.89385543 191.63558233 -33.95947266 195.06738281 C-34.65508301 195.30610107 -35.35069336 195.54481934 -36.06738281 195.79077148 C-60.52248057 203.66986089 -89.96706138 201.87359673 -113.08837891 190.61035156 C-135.61794414 178.98469029 -150.05482588 160.5600242 -158.08837891 136.78613281 C-161.82031172 124.33717611 -163.12248866 112.16102515 -163.08447266 99.19238281 C-163.08392883 98.49128387 -163.08338501 97.79018494 -163.08282471 97.06784058 C-163.04079704 85.23974303 -162.02666484 74.08499271 -158.70947266 62.69238281 C-158.50580078 61.97131348 -158.30212891 61.25024414 -158.09228516 60.50732422 C-153.35999396 44.27658783 -145.19961988 29.12300472 -133.70947266 16.69238281 C-133.02626953 15.92925781 -132.34306641 15.16613281 -131.63916016 14.37988281 C-99.77539704 -19.48271416 -38.20370447 -29.22294218 0 0 Z "
    fill="#163300" transform="translate(1399.70947265625,448.3076171875)" />
  <path
    d="M0 0 C0.33 0.33 0.66 0.66 1 1 C0.77006393 8.55435919 -0.51679522 16.10903674 -1.62890625 23.57421875 C-1.78286362 24.62406448 -1.93682098 25.67391022 -2.09544373 26.75556946 C-2.58165453 30.06663339 -3.07200316 33.37706857 -3.5625 36.6875 C-3.89545758 38.94982929 -4.22814239 41.21219875 -4.56054688 43.47460938 C-5.37054819 48.9835407 -6.18393586 54.4919637 -7 60 C-11.8046875 55.21289063 -11.8046875 55.21289063 -13.5625 53.296875 C-25.16935625 40.80688838 -41.51700815 32.22708694 -58.51953125 30.6796875 C-66.98494922 30.40453849 -74.06812441 31.26643153 -80.9453125 36.47265625 C-84.19667628 39.67109085 -85.43151979 42.44434827 -85.75 47 C-85.40845625 51.43337176 -84.4071636 54.16888169 -81.2421875 57.3046875 C-71.76873612 64.46754099 -59.99858756 68.99623224 -49.29711914 73.96777344 C-38.53526244 79.01615416 -29.50200886 84.6411226 -21 93 C-20.33742188 93.6496875 -19.67484375 94.299375 -18.9921875 94.96875 C-7.92708033 106.65656883 -6.40544713 121.03733008 -6.69140625 136.37109375 C-7.4053279 153.95252522 -14.60068719 169.55590235 -27.43603516 181.63183594 C-47.95220164 199.5794783 -74.27164528 202.3847502 -100.484375 201.25 C-115.83896235 200.15811823 -130.52505505 196.15632301 -144.14208984 188.97900391 C-145.86113433 188.07317363 -147.61130847 187.22709594 -149.36328125 186.38671875 C-152.21402588 184.79771448 -153.95381688 183.52801225 -156 181 C-156.27880859 178.63867188 -156.27880859 178.63867188 -155.9609375 175.78125 C-155.83517334 174.62794189 -155.70940918 173.47463379 -155.57983398 172.28637695 C-155.39116802 170.85696832 -155.197384 169.42823087 -155 168 C-154.88173859 167.13555267 -154.76347717 166.27110535 -154.64163208 165.38046265 C-153.63546321 158.13997732 -152.54066982 150.91372357 -151.4375 143.6875 C-151.10438946 141.48248653 -150.77170364 139.27740885 -150.43945312 137.07226562 C-149.63119872 131.71409345 -148.81769948 126.35673847 -148 121 C-144.50467474 124.45864704 -141.26496283 128.01955023 -138.0625 131.75 C-132.22358444 138.30597537 -125.57618416 142.66811855 -118 147 C-116.90558594 147.66128906 -116.90558594 147.66128906 -115.7890625 148.3359375 C-104.78991417 154.50845534 -90.35659632 155.73598305 -78 154 C-72.47630178 152.28633975 -67.72867447 150.3225517 -64.21484375 145.6015625 C-62.24227379 141.37734517 -62.38185203 137.56252071 -63 133 C-67.48643687 122.1043676 -83.30710614 117.39395376 -93.5 113 C-112.21606493 104.93187675 -130.07930555 95.55262546 -138.375 75.75 C-143.85844797 61.54071743 -142.84156204 41.90761985 -137 28 C-129.48078701 11.5097375 -116.52700024 -1.65317896 -99.53125 -8.37109375 C-95.72888326 -9.73595641 -91.8812491 -10.87972135 -88 -12 C-86.95714844 -12.32226562 -85.91429687 -12.64453125 -84.83984375 -12.9765625 C-57.4922281 -20.22859441 -24.03562803 -14.68186146 0 0 Z "
    fill="#163300" transform="translate(1229,447)" />
  <path
    d="M0 0 C64.68 0 129.36 0 196 0 C194.61904559 6.21429485 193.1870758 11.53361841 190.8125 17.3125 C188.25737515 23.70097995 185.86229249 30.11846217 183.625 36.625 C180.72065058 45.05050527 177.6384915 53.39938008 174.45947266 61.72509766 C172.13561473 67.84771454 169.93618494 74.00655905 167.78515625 80.19140625 C163.6232282 92.15084664 159.27957466 104.04253389 154.9375 115.9375 C153.17712523 120.76386435 151.41807806 125.59071041 149.66015625 130.41796875 C149.43387039 131.03930317 149.20758453 131.66063759 148.97444153 132.30080032 C145.50606556 141.82726711 142.0653427 151.36345809 138.64092445 160.9058094 C137.87665699 163.03528043 137.11189084 165.16457171 136.3469696 167.29380798 C135.8440127 168.69399595 135.34106769 170.09418819 134.83813477 171.49438477 C134.59146529 172.1811262 134.34479582 172.86786764 134.09065151 173.57541943 C132.62121098 177.66778269 131.15550461 181.76146162 129.69228077 185.85605145 C129.00040266 187.79020534 128.30670421 189.72369456 127.61219788 191.65690613 C126.76159219 194.02490128 125.91404515 196.39399811 125.0700531 198.76435852 C124.69357132 199.80988388 124.31708954 200.85540924 123.92919922 201.93261719 C123.6031369 202.84372253 123.27707458 203.75482788 122.94113159 204.69354248 C122 207 122 207 120 210 C118.12704468 210.36076355 118.12704468 210.36076355 115.82568359 210.34057617 C114.96494232 210.34034958 114.10420105 210.34012299 113.21737671 210.33988953 C112.28712677 210.32440567 111.35687683 210.30892181 110.3984375 210.29296875 C109.44683746 210.28872391 108.49523743 210.28447906 107.51480103 210.28010559 C104.46791586 210.26327896 101.42168609 210.22561954 98.375 210.1875 C96.31250954 210.17245831 94.25000873 210.15876901 92.1875 210.14648438 C87.1247465 210.11336239 82.06248446 210.06155284 77 210 C79.10803497 202.60609567 81.60430896 195.40943491 84.2890625 188.20703125 C84.70508728 187.08283783 85.12111206 185.95864441 85.54974365 184.80038452 C86.67299103 181.76568293 87.79871824 178.73191441 88.9252243 175.69842148 C91.06600022 169.92895092 93.19617006 164.15554682 95.328125 158.3828125 C95.56705349 157.73613554 95.80598198 157.08945858 96.05215073 156.42318535 C100.87698681 143.36290318 105.64211077 130.28137574 110.375 117.1875 C110.71476868 116.24887115 111.05453735 115.31024231 111.40460205 114.34317017 C114.82536242 104.89051982 118.21056686 95.42735472 121.515625 85.93359375 C124.72940742 76.70729954 128.06734425 67.52960992 131.45458984 58.36572266 C132.39768138 55.8136219 133.33765147 53.26038535 134.27734375 50.70703125 C134.88002997 49.07285087 135.48288751 47.43873367 136.0859375 45.8046875 C136.50460587 44.66747757 136.50460587 44.66747757 136.93173218 43.5072937 C138.88447272 38.23105457 138.88447272 38.23105457 140 36 C100.4 36.495 100.4 36.495 60 37 C67.87939669 51.07024867 67.87939669 51.07024867 76 65 C75.88205679 69.42633937 73.86336793 71.82696571 71.0625 75.125 C70.25296875 76.08277344 69.4434375 77.04054688 68.609375 78.02734375 C65.28822519 81.8108692 61.90079018 85.5270181 58.45703125 89.19921875 C55.44154155 92.63658936 52.74356158 96.3419179 50 100 C64.52 100 79.04 100 94 100 C92.09379077 111.43725539 87.02711624 122.12678616 83 133 C48.02 133 13.04 133 -23 133 C-20.70289687 129.17149478 -18.84236784 126.55508238 -15.875 123.375 C-12.62912126 119.83499632 -9.51709748 116.23696635 -6.5 112.5 C-3.5918662 108.9052235 -0.61458668 105.41739372 2.5 102 C6.31607443 97.80889757 9.90421149 93.47578087 13.46875 89.0703125 C17.03350299 84.74639915 20.71096812 80.52391591 24.39550781 76.30200195 C25.43807877 75.10676196 26.47632571 73.90773356 27.50976562 72.70458984 C28.4941363 71.57862719 29.50331154 70.47382519 30.53710938 69.39306641 C32.14955922 67.71541824 32.14955922 67.71541824 34 65 C33.66213429 61.11755743 32.23546447 58.24522368 30.33203125 54.88671875 C29.77507568 53.89736328 29.21812012 52.90800781 28.64428711 51.88867188 C28.03979736 50.83228516 27.43530762 49.77589844 26.8125 48.6875 C26.19189697 47.59115234 25.57129395 46.49480469 24.93188477 45.36523438 C19.92899307 36.55460371 14.84156518 27.7926299 9.70825195 19.05737305 C7.14674772 14.69822887 4.59474887 10.33392562 2.09765625 5.9375 C1.69168213 5.22464844 1.28570801 4.51179688 0.86743164 3.77734375 C0 2 0 2 0 0 Z "
    fill="#163400" transform="translate(510,435)" />
  <path
    d="M0 0 C19.14 0 38.28 0 58 0 C56.8512881 14.9332547 56.8512881 14.9332547 55.8614502 21.86341858 C55.69584304 23.05803488 55.69584304 23.05803488 55.52689028 24.27678484 C55.16298539 26.8947836 54.79344303 29.5119522 54.42382812 32.12915039 C54.15895894 34.02598436 53.89443723 35.92286689 53.63023376 37.8197937 C52.91697747 42.93328462 52.19874504 48.04606496 51.47945213 53.15870976 C50.72589235 58.52026795 49.97657674 63.88241943 49.22668457 69.24449158 C47.96848885 78.23654232 46.70717518 87.22815131 45.44384766 96.21948242 C43.98311862 106.61594177 42.52673981 117.0130032 41.07279825 127.4104138 C39.67223466 137.42575661 38.269211 147.4407531 36.86485291 157.4555645 C36.2676874 161.7141504 35.67127852 165.97284125 35.07545471 170.23161507 C34.37487983 175.23799747 33.67211954 180.24406837 32.96765327 185.24990463 C32.709314 187.08805822 32.45170846 188.9263151 32.19488335 190.76468086 C31.84476916 193.26988423 31.49200687 195.77470063 31.1385498 198.2794342 C31.03708916 199.0098683 30.93562852 199.7403024 30.83109331 200.49287087 C30.37109055 203.73342675 29.79550935 206.81796261 29 210 C9.86 210 -9.28 210 -29 210 C-27.89106145 194.47486034 -27.89106145 194.47486034 -26.75 188 C-25.13604375 178.38478915 -23.87906308 168.72958226 -22.625 159.0625 C-20.94083842 146.11863871 -19.23070367 133.17925833 -17.4375 120.25 C-17.33294495 119.4958078 -17.22838989 118.7416156 -17.1206665 117.96456909 C-15.82874712 108.6710724 -14.46265222 99.39339378 -13 90.125 C-11.34840856 79.64599465 -9.93010432 69.14396744 -8.5625 58.625 C-8.40714783 57.43035629 -8.40714783 57.43035629 -8.24865723 56.21157837 C-8.0931842 55.01593765 -8.0931842 55.01593765 -7.93457031 53.79614258 C-6.52105009 42.92991912 -5.07826976 32.0683213 -3.58078003 21.21331787 C-3.36153632 19.62203614 -3.14336353 18.03060647 -2.92630005 16.43902588 C-2.6256294 14.23628466 -2.32120143 12.03409655 -2.015625 9.83203125 C-1.84321289 8.58139893 -1.67080078 7.3307666 -1.49316406 6.04223633 C-1 3 -1 3 0 0 Z "
    fill="#163300" transform="translate(1014,435)" />
  <path
    d="M0 0 C7.93112803 6.52006844 11.69582226 15.38925857 13.6875 25.3125 C13.6875 27.9525 13.6875 30.5925 13.6875 33.3125 C-13.3725 33.3125 -40.4325 33.3125 -68.3125 33.3125 C-63.88557612 18.92499739 -58.3646995 7.5230946 -45.24609375 -0.58203125 C-30.22438703 -8.3090919 -14.49250606 -9.83517897 0 0 Z "
    fill="#9DE66F" transform="translate(1365.3125,483.6875)" />
</svg>